<svg width="30" height="30" viewBox="0 0 30 30" fill="none" xmlns="http://www.w3.org/2000/svg">
    <circle cx="15" cy="15" r="15" fill="white"/>
    <circle cx="15" cy="15" r="12.5" fill="#58DC00"/>
    <path d="M21.8809 15.2598C22.0636 13.8717 21.7832 12.462 21.0831 11.2494C20.383 10.0368 19.3024 9.08911 18.0088 8.55329C16.7152 8.01747 15.281 7.92346 13.9285 8.28585" stroke="white" stroke-linecap="round"/>
    <path d="M18.9775 14.4681C19.0678 13.7822 18.9292 13.0856 18.5833 12.4865C18.2374 11.8873 17.7034 11.419 17.0642 11.1543C16.4251 10.8895 15.7164 10.8431 15.0481 11.0221" stroke="white" stroke-linecap="round"/>
    <path d="M8.17962 8.55722L8.52974 8.20711C8.92026 7.81658 9.55342 7.81658 9.94395 8.20711L12.3192 10.5824C12.7097 10.9729 12.7097 11.6061 12.3192 11.9966L10.6584 13.6574C10.3752 13.9406 10.305 14.3732 10.4841 14.7313C11.5193 16.8018 13.1982 18.4807 15.2687 19.5159C15.6268 19.695 16.0594 19.6248 16.3426 19.3416L18.0034 17.6808C18.3939 17.2903 19.0271 17.2903 19.4176 17.6808L21.7929 20.0561C22.1834 20.4466 22.1834 21.0797 21.7929 21.4703L21.4428 21.8204C19.3314 23.9317 15.9889 24.1693 13.6001 22.3777L12.8128 21.7872C11.0693 20.4796 9.52043 18.9307 8.21278 17.1872L7.62226 16.3999C5.83072 14.0111 6.06827 10.6686 8.17962 8.55722Z" fill="white"/>
</svg>

