<svg width="30" height="30" viewBox="0 0 30 30" fill="none" xmlns="http://www.w3.org/2000/svg">
    <circle cx="15" cy="15" r="15" fill="white"/>
    <circle cx="15" cy="15" r="12.5" fill="#FD2424"/>
    <path fill-rule="evenodd" clip-rule="evenodd" d="M7.79289 9.79289C7.5 10.0858 7.5 10.5572 7.5 11.5V19.1667C7.5 20.1095 7.5 20.5809 7.79289 20.8738C8.08579 21.1667 8.55719 21.1667 9.5 21.1667H20.5C21.4428 21.1667 21.9142 21.1667 22.2071 20.8738C22.5 20.5809 22.5 20.1095 22.5 19.1667V11.5C22.5 10.5572 22.5 10.0858 22.2071 9.79289C21.9142 9.5 21.4428 9.5 20.5 9.5H9.5C8.55719 9.5 8.08579 9.5 7.79289 9.79289ZM10.2774 12.4173C10.0476 12.2641 9.73715 12.3262 9.58397 12.556C9.4308 12.7857 9.49289 13.0962 9.72265 13.2494L14.1679 16.2129C14.6718 16.5488 15.3282 16.5488 15.8321 16.2129L20.2774 13.2494C20.5071 13.0962 20.5692 12.7857 20.416 12.556C20.2628 12.3262 19.9524 12.2641 19.7226 12.4173L15.2774 15.3808C15.1094 15.4928 14.8906 15.4928 14.7226 15.3808L10.2774 12.4173Z" fill="white"/>
</svg>
