<svg width="31" height="30" viewBox="0 0 31 30" fill="none" xmlns="http://www.w3.org/2000/svg">
    <circle cx="15.5835" cy="15" r="15" fill="white"/>
    <path fill-rule="evenodd" clip-rule="evenodd" d="M28.0835 15C28.0835 21.9031 22.4866 27.5 15.5835 27.5C8.68037 27.5 3.0835 21.9031 3.0835 15C3.0835 8.09688 8.68037 2.5 15.5835 2.5C22.4866 2.5 28.0835 8.09688 28.0835 15ZM16.0314 11.7281C14.8158 12.2333 12.3856 13.2802 8.74183 14.8677C8.15016 15.1031 7.83975 15.3333 7.81162 15.5583C7.7637 15.9396 8.24079 16.0896 8.8887 16.2927C8.97725 16.3208 9.06891 16.349 9.16266 16.3802C9.8012 16.5875 10.6595 16.8302 11.1054 16.8396C11.5106 16.8479 11.9627 16.6812 12.4616 16.3396C15.8658 14.0406 17.6231 12.8792 17.7335 12.8542C17.8116 12.8365 17.92 12.8135 17.9929 12.8792C18.0658 12.9437 18.0585 13.0667 18.0512 13.1C18.0033 13.301 16.1345 15.0396 15.1658 15.9396C14.8637 16.2198 14.6502 16.4187 14.6064 16.4646C14.5085 16.5656 14.4085 16.6625 14.3127 16.7552C13.7189 17.326 13.2752 17.7552 14.3377 18.4552C14.8481 18.7917 15.2564 19.0698 15.6637 19.3469C16.1085 19.65 16.5522 19.9521 17.1272 20.3292C17.2731 20.425 17.4127 20.524 17.5491 20.6208C18.0668 20.9906 18.5325 21.3219 19.1075 21.2698C19.4408 21.2385 19.7866 20.925 19.9616 19.9885C20.3752 17.774 21.1897 12.9781 21.3783 11.001C21.3898 10.8369 21.3828 10.672 21.3575 10.5094C21.3423 10.3781 21.2784 10.2572 21.1783 10.1708C21.0293 10.049 20.7981 10.0229 20.6939 10.025C20.2241 10.0333 19.5033 10.2844 16.0314 11.7281Z" fill="#0088CC"/>
</svg>
