<svg width="260" height="62" viewBox="0 0 260 62" fill="none" xmlns="http://www.w3.org/2000/svg">
<path d="M1.0198 3.25237C0.392716 2.71102 0.323219 1.76382 0.864571 1.13674C1.40592 0.509659 2.35312 0.440163 2.9802 0.981514L1.0198 3.25237ZM260 2.11626L253.986 18.3593L242.926 5.0298L260 2.11626ZM2.9802 0.981514C5.61776 3.25849 8.24329 5.4658 10.8574 7.60381L8.95805 9.92601C6.32273 7.77062 3.67684 5.54617 1.0198 3.25237L2.9802 0.981514ZM27.143 20.1335C32.882 24.2653 38.5691 28.0544 44.2107 31.5053L42.6453 34.0645C36.9355 30.5719 31.1859 26.7408 25.3902 22.5681L27.143 20.1335ZM62.1463 41.4132C68.4692 44.5256 74.7414 47.2048 80.9723 49.4572L79.9524 52.2786C73.6115 49.9863 67.2376 47.2631 60.8214 44.1048L62.1463 41.4132ZM100.566 55.1691C107.326 56.6624 114.05 57.6498 120.752 58.1391L120.534 61.1312C113.684 60.631 106.816 59.6222 99.9184 58.0985L100.566 55.1691ZM141.137 58.0958C147.86 57.5767 154.578 56.5594 161.304 55.0502L161.961 57.9775C155.099 59.5171 148.238 60.5564 141.368 61.0869L141.137 58.0958ZM180.898 49.2807C187.142 47.0096 193.405 44.3227 199.697 41.2246L201.022 43.9161C194.639 47.059 188.276 49.7893 181.924 52.1L180.898 49.2807ZM217.655 31.3238C223.328 27.8676 229.032 24.0876 234.773 19.987L236.517 22.4283C230.721 26.5681 224.956 30.3889 219.216 33.8858L217.655 31.3238Z" fill="#FFEF62"/>
</svg>
