<svg width="260" height="49" viewBox="0 0 260 49" fill="none" xmlns="http://www.w3.org/2000/svg">
    <path d="M0.667537 45.4844C-0.0216042 45.9442 -0.207557 46.8756 0.2522 47.5647C0.711957 48.2538 1.64332 48.4398 2.33246 47.98L0.667537 45.4844ZM259.5 46.7328L251.539 31.3504L242.198 45.9364L259.5 46.7328ZM2.33246 47.98C5.10307 46.1316 7.8605 44.3426 10.6054 42.6126L9.00582 40.0746C6.23835 41.8188 3.45915 43.622 0.667537 45.4844L2.33246 47.98ZM27.5647 32.5873C33.4675 29.3333 39.3165 26.3593 45.1188 23.6618L43.8541 20.9415C37.9863 23.6694 32.0761 26.6747 26.1164 29.96L27.5647 32.5873ZM63.2725 16.0667C69.5521 13.736 75.7842 11.735 81.9782 10.0592L81.1947 7.1633C74.9092 8.86389 68.5902 10.893 62.2286 13.2542L63.2725 16.0667ZM101.15 5.88703C107.68 4.81467 114.178 4.10618 120.657 3.75641L120.496 0.76077C113.906 1.1165 107.299 1.83693 100.664 2.92668L101.15 5.88703ZM140.269 3.79062C146.769 4.16396 153.262 4.89622 159.761 5.98278L160.256 3.02384C153.652 1.9198 147.051 1.17524 140.441 0.795558L140.269 3.79062ZM178.943 10.2065C185.153 11.8997 191.379 13.9103 197.631 16.2346L198.677 13.4226C192.344 11.0685 186.033 9.03006 179.732 7.31215L178.943 10.2065ZM215.78 23.8202C221.607 26.52 227.463 29.4839 233.359 32.709L234.798 30.0771C228.848 26.8219 222.932 23.8277 217.042 21.0982L215.78 23.8202Z" fill="#FFEF62"/>
</svg>
