<svg width="780" height="83" viewBox="0 0 780 83" fill="none" xmlns="http://www.w3.org/2000/svg">
    <path d="M778.762 2.792C779.476 2.37117 779.713 1.45155 779.292 0.737976C778.871 0.0243912 777.952 -0.212921 777.238 0.207909L778.762 2.792ZM0 81.3406L17.2882 82.3977L9.55957 66.8971L0 81.3406ZM777.238 0.207909C774.599 1.76414 771.774 3.24706 768.77 4.65968L770.047 7.37456C773.127 5.92626 776.035 4.40025 778.762 2.792L777.238 0.207909ZM750.471 11.7393C744.618 13.6114 738.34 15.3132 731.668 16.8592L732.345 19.7818C739.085 18.2201 745.442 16.4973 751.385 14.5967L750.471 11.7393ZM712.45 20.712C706.224 21.7889 699.739 22.7635 693.014 23.6453L693.404 26.6198C700.165 25.7334 706.69 24.7527 712.961 23.6681L712.45 20.712ZM673.445 25.8912C667.063 26.5288 660.505 27.0994 653.784 27.6095L654.012 30.6009C660.753 30.0891 667.335 29.5165 673.743 28.8763L673.445 25.8912ZM634.207 28.9054C627.792 29.2724 621.253 29.5942 614.599 29.8758L614.726 32.8731C621.393 32.5909 627.947 32.2684 634.379 31.9005L634.207 28.9054ZM594.924 30.5867C588.435 30.7839 581.854 30.9496 575.188 31.0882L575.251 34.0876C581.925 33.9488 588.516 33.7828 595.015 33.5854L594.924 30.5867ZM555.465 31.4204C548.984 31.5058 542.434 31.5706 535.824 31.6184L535.846 34.6183C542.461 34.5705 549.017 34.5056 555.505 34.4201L555.465 31.4204ZM516.114 31.714C509.577 31.7315 502.989 31.7365 496.358 31.7323L496.356 34.7323C502.99 34.7365 509.581 34.7315 516.122 34.714L516.114 31.714ZM476.694 31.6968C470.158 31.6785 463.588 31.6546 456.99 31.6285L456.978 34.6285C463.577 34.6546 470.148 34.6784 476.686 34.6968L476.694 31.6968ZM437.254 31.5468C430.709 31.5196 424.142 31.4932 417.561 31.4706L417.55 34.4706C424.131 34.4932 430.696 34.5196 437.241 34.5468L437.254 31.5468ZM397.848 31.4175C391.282 31.4056 384.706 31.4005 378.128 31.405L378.13 34.405C384.705 34.4005 391.278 34.4056 397.843 34.4175L397.848 31.4175ZM358.418 31.4509C351.838 31.4779 345.262 31.5176 338.695 31.573L338.72 34.5729C345.282 34.5175 351.854 34.4778 358.43 34.4509L358.418 31.4509ZM318.992 31.7897C312.399 31.8802 305.822 31.9896 299.266 32.1211L299.326 35.1205C305.875 34.9892 312.446 34.8798 319.033 34.7894L318.992 31.7897ZM279.537 32.5882C272.945 32.7695 266.382 32.9765 259.854 33.2124L259.962 36.2104C266.481 35.9749 273.035 35.7681 279.619 35.5871L279.537 32.5882ZM240.134 34.0215C233.512 34.3272 226.933 34.6668 220.405 35.0437L220.578 38.0387C227.094 37.6625 233.661 37.3235 240.272 37.0183L240.134 34.0215ZM200.742 36.3068C194.133 36.7764 187.585 37.2893 181.105 37.8492L181.364 40.8381C187.827 40.2795 194.36 39.7678 200.955 39.2993L200.742 36.3068ZM161.399 39.7242C154.771 40.4156 148.227 41.1628 141.776 41.9702L142.149 44.947C148.578 44.1423 155.102 43.3974 161.71 42.708L161.399 39.7242ZM122.256 44.6447C115.664 45.6307 109.184 46.6885 102.827 47.8233L103.355 50.7766C109.682 49.6471 116.134 48.5938 122.7 47.6117L122.256 44.6447ZM83.3687 51.6269C76.7808 53.0339 70.3486 54.5374 64.0852 56.1439L64.8305 59.0498C71.0516 57.4542 77.444 55.9599 83.9952 54.5607L83.3687 51.6269ZM45.0345 61.5194C38.5677 63.5247 32.3193 65.6623 26.3066 67.9411L27.3699 70.7464C33.32 68.4913 39.5099 66.3735 45.923 64.3848L45.0345 61.5194Z" fill="#FFEF62"/>
</svg>
