<svg width="240" height="105" viewBox="0 0 240 105" fill="none" xmlns="http://www.w3.org/2000/svg">
    <path d="M0.417893 63.6508C-0.155804 63.0532 -0.136402 62.1037 0.461229 61.53C1.05886 60.9563 2.00841 60.9757 2.58211 61.5733L0.417893 63.6508ZM240 0.237541L235.707 17.0175L223.321 4.90949L240 0.237541ZM2.58211 61.5733C4.99705 64.089 7.40349 66.4736 9.80169 68.7307L7.74559 70.9153C5.30886 68.6219 2.86643 66.2015 0.417893 63.6508L2.58211 61.5733ZM25.34 81.6898C31.1276 85.9004 36.8685 89.3934 42.5674 92.223L41.2333 94.91C35.372 91.9998 29.4877 88.4172 23.5751 84.1157L25.34 81.6898ZM61.372 99.2622C68.0283 100.954 74.6446 101.8 81.2318 101.884L81.1933 104.884C74.3722 104.796 67.5207 103.92 60.6332 102.17L61.372 99.2622ZM101.196 99.8782C107.62 98.5275 114.036 96.5211 120.451 93.9322L121.574 96.7142C115.014 99.3613 108.43 101.423 101.813 102.814L101.196 99.8782ZM138.64 85.0962C144.357 81.8701 150.076 78.2396 155.802 74.2584L157.515 76.7216C151.722 80.7487 145.924 84.4306 140.115 87.7089L138.64 85.0962ZM172.092 62.0533C177.275 57.9071 182.465 53.5193 187.668 48.9299L189.653 51.1797C184.419 55.796 179.192 60.2154 173.966 64.3959L172.092 62.0533ZM202.713 35.1696C207.587 30.5667 212.473 25.8239 217.376 20.9739L219.486 23.1067C214.57 27.9697 209.666 32.729 204.772 37.3507L202.713 35.1696Z" fill="url(#paint0_linear_230_537)"/>
    <defs>
        <linearGradient id="paint0_linear_230_537" x1="2.98636" y1="32.2729" x2="236" y2="16.8411" gradientUnits="userSpaceOnUse">
            <stop offset="0.531505" stop-color="#FFEF62"/>
            <stop offset="1"/>
        </linearGradient>
    </defs>
</svg>
