<svg width="31" height="30" viewBox="0 0 31 30" fill="none" xmlns="http://www.w3.org/2000/svg">
    <path d="M15.8766 25.2012C15.0066 25.2012 14.1909 25.1716 13.4267 25.1118L9.77319 29.3393C9.49572 29.6603 8.9601 29.4682 8.9601 29.0476V24.2235C4.65827 22.6383 3.19629 19.093 3.19629 13.3506C3.19629 5.22657 6.12252 1.5 15.8766 1.5C25.6307 1.5 28.557 5.22657 28.557 13.3506C28.557 21.4747 25.6307 25.2012 15.8766 25.2012Z" fill="#B18AB1"/>
    <path d="M11.5976 11.0366L11.5591 11.0563L11.525 11.0823C11.244 11.2967 10.8181 11.8902 11.1911 12.6258C11.5118 13.2583 12.2241 14.5447 13.4731 15.5129C14.6973 16.4616 16.003 16.9706 16.8565 17.1367L16.9047 17.1461H16.9508C16.9525 17.1462 16.959 17.1467 16.9722 17.1485C16.9939 17.1513 17.0197 17.1554 17.0584 17.1616C17.0647 17.1626 17.0713 17.1637 17.0781 17.1649C17.3425 17.2079 17.9522 17.3073 18.4647 16.836C18.8079 16.5205 19.1211 16.1913 19.2535 16.0457C19.3566 15.9574 19.6879 15.7791 20.1064 15.9096C20.8528 16.1424 21.7362 16.6657 22.1601 16.9289C22.4896 17.1334 23.2338 17.6254 23.5688 17.8486L23.5689 17.8487C23.6046 17.8724 23.6768 17.9406 23.7162 18.0346C23.749 18.1131 23.7645 18.2192 23.6903 18.3657C23.5604 18.6224 23.1714 19.1026 22.6484 19.5211C22.1171 19.9462 21.5536 20.2221 21.091 20.2221C21.0914 20.2221 21.0167 20.216 20.8359 20.1785C20.6718 20.1445 20.4509 20.0913 20.1815 20.0166C19.6434 19.8672 18.922 19.6344 18.0893 19.3039C16.4225 18.6423 14.3241 17.5946 12.3592 16.0514C11.1211 15.0791 9.95493 13.7364 9.04783 12.4813C8.13387 11.2166 7.5194 10.0919 7.35091 9.56775L7.34036 9.53506L7.32459 9.50422C7.28019 9.41775 7.21996 9.23859 7.21877 9.0358C7.21758 8.83911 7.27106 8.6468 7.41641 8.48612C7.86494 7.99012 8.34325 7.49927 9.39558 7.02954C9.49999 6.98296 9.66037 6.9428 9.8186 6.94048C9.98039 6.93806 10.0763 6.9748 10.1225 7.01217C10.5231 7.33627 11.1437 7.90796 11.5626 8.39754C11.7783 8.64959 12.0387 8.96954 12.2558 9.24754C12.3643 9.38654 12.4602 9.51285 12.5334 9.61354C12.5701 9.66396 12.5996 9.70596 12.6214 9.73869C12.6402 9.7668 12.6487 9.78117 12.6511 9.78506C12.6511 9.78538 12.6513 9.7859 12.6516 9.78669C12.6541 9.7938 12.6635 9.82101 12.6715 9.86927C12.6811 9.92685 12.6857 9.99743 12.6792 10.0714C12.666 10.2219 12.6118 10.3499 12.5069 10.4385C12.1913 10.7052 11.7654 10.9509 11.5976 11.0366ZM16.5387 5.4878C16.5387 5.47969 16.5416 5.46701 16.5588 5.45201C16.5766 5.43659 16.6063 5.42285 16.6461 5.42285C20.9178 5.42285 24.326 8.42317 24.326 12.0637C24.326 12.0718 24.3231 12.0845 24.3059 12.0995C24.2881 12.1149 24.2584 12.1287 24.2186 12.1287C24.1788 12.1287 24.149 12.1149 24.1313 12.0995C24.114 12.0845 24.1111 12.0718 24.1111 12.0637C24.1111 8.44064 20.7387 5.55275 16.6461 5.55275C16.6063 5.55275 16.5766 5.53896 16.5588 5.52354C16.5416 5.50859 16.5387 5.49585 16.5387 5.4878ZM16.5387 9.53454C16.5387 9.52643 16.5416 9.51375 16.5588 9.49875C16.5766 9.48333 16.6063 9.46959 16.6461 9.46959C18.3442 9.46959 19.666 10.6581 19.666 12.0637C19.666 12.0718 19.6631 12.0845 19.6459 12.0995C19.6281 12.1149 19.5984 12.1287 19.5586 12.1287C19.5188 12.1287 19.4891 12.1149 19.4713 12.0995C19.4541 12.0845 19.4512 12.0718 19.4512 12.0637C19.4512 10.6756 18.1651 9.59948 16.6461 9.59948C16.6063 9.59948 16.5766 9.58569 16.5588 9.57027C16.5416 9.55533 16.5387 9.54259 16.5387 9.53454ZM16.5387 7.51117C16.5387 7.50306 16.5416 7.49038 16.5588 7.47538C16.5766 7.45996 16.6063 7.44622 16.6461 7.44622C19.631 7.44622 21.996 9.54064 21.996 12.0637C21.996 12.0718 21.9931 12.0845 21.9759 12.0995C21.9581 12.1149 21.9284 12.1287 21.8886 12.1287C21.8488 12.1287 21.819 12.1149 21.8013 12.0995C21.784 12.0845 21.7812 12.0718 21.7812 12.0637C21.7812 9.55817 19.4519 7.57612 16.6461 7.57612C16.6063 7.57612 16.5766 7.56233 16.5588 7.5469C16.5416 7.53196 16.5387 7.51922 16.5387 7.51117Z" fill="white" stroke="white" stroke-linecap="round"/>
</svg>
